<svg xmlns="http://www.w3.org/2000/svg" viewBox="0 0 517.81 304.61"><defs><style>.cls-1{fill:#e3272f;}.cls-2{fill:#fff;}.cls-3{fill:#991a20;}.cls-4{fill:#2e2c15;}.cls-5,.cls-6{fill:none;}.cls-5{stroke:#2e2c15;stroke-miterlimit:10;stroke-width:7.35px;}.cls-6{stroke:#991a20;stroke-linecap:round;stroke-linejoin:round;stroke-width:13.61px;}</style></defs><g id="Layer_2" data-name="Layer 2"><g id="Mask"><path class="cls-1" d="M218,125.91c-65,0-56.27-58.2-56.27-58.2V7.32c0-4-2.9-7.32-6.47-7.32H6.47C2.9,0,0,3.28,0,7.32V79.1H91.41a25.06,25.06,0,0,1,25.07,25.06h0a25.06,25.06,0,0,1-25.07,25.06H23.29v5.84c0,4.05,2.89,7.33,6.47,7.33h99.92c7.25,42.28,39.49,53.37,65.6,55.16a132,132,0,0,0,35.32-2.45l61.14-14.73,226.07-54.46Z"/><path class="cls-2" d="M116.48,104.16h0A25.06,25.06,0,0,0,91.41,79.1H0v25.38l22-20.3L23.29,83v21.46L46.58,83v21.46l7.61-7L69.87,83v21.46l7.61-7,7.1-6.55,2.74-2.53h0a5.32,5.32,0,0,1,.45-.38l.15-.11a3.62,3.62,0,0,1,.32-.22l.17-.11.33-.18.16-.08a3.29,3.29,0,0,1,.39-.17l.1,0c.17-.07.34-.12.5-.17l.1,0,.41-.09.15,0,.38,0h.63a5.3,5.3,0,0,1,1.05.14h0a3.45,3.45,0,0,1,.46.12l.06,0a4.68,4.68,0,0,1,.48.18h0a6.49,6.49,0,0,1,1.85,1.21h0a7.55,7.55,0,0,1,2.36,5.65V107.6a7.71,7.71,0,0,1-2.39,5.67L84.29,123.6V102.13L61,123.6V102.13L37.71,123.6V102.13l-14.42,13.3v13.79H91.41A25.06,25.06,0,0,0,116.48,104.16Z"/><path class="cls-3" d="M218,125.91c-38.16,0-50.91-20-54.93-36.62a62.24,62.24,0,0,1-1.34-21.58V7.32c0-4-2.9-7.32-6.47-7.32H6.47C2.9,0,0,3.28,0,7.32V79.1H142.88c.3,25.44,2.82,42.38,3.19,44.74l.05.29.07-.14c7.3,42.15,39.48,53.22,65.57,55a132,132,0,0,0,35.31-2.45l61.14-14.73,149.07-35.91Z"/><ellipse class="cls-4" cx="86.36" cy="35.89" rx="6.76" ry="7.65"/><path class="cls-5" d="M64.24,43.54s19.66-4.87,32-31.29"/><path class="cls-3" d="M242.54,250.68h-.12c-8,0-14.51-7.35-14.51-16.42,0-7.39,4.32-13.64,10.26-15.69H225c-22.4,0-40.56-20.56-40.56-45.92v32.61c0,31.28,22.4,56.64,50,56.64a44.41,44.41,0,0,0,8.11-.76Z"/><path class="cls-3" d="M243.9,126.74H225c-22.4,0-40.56,20.56-40.56,45.91h0c0,25.36,18.16,45.92,40.56,45.92h13.22a12.81,12.81,0,0,1,4.25-.72h6.77a13.55,13.55,0,0,1,1.43.08c19.2-3.62,33.85-22.51,33.85-45.28h0C284.47,147.3,266.3,126.74,243.9,126.74Z"/><path class="cls-3" d="M250.62,217.93a13.55,13.55,0,0,0-1.43-.08h-6.77a12.81,12.81,0,0,0-4.25.72h5.73A36.45,36.45,0,0,0,250.62,217.93Z"/><polyline class="cls-6" points="178.33 151.8 140.8 194.28 123.74 174.97 109.88 188.64"/><path class="cls-3" d="M242.42,250.68h6.11a2.13,2.13,0,0,1,1.8,2.88l-15.9,51.05H168.1c0-9.58,6.17-17.73,14.54-19.2l16.68-2.93a46.22,46.22,0,0,0,24.82-13.29Z"/><path class="cls-1" d="M230.75,147.86,218,126h16v19.9C234,148.54,231.89,149.82,230.75,147.86Z"/><path class="cls-1" d="M257.83,146.08,246.13,126h14.65v18.28C260.78,146.71,258.88,147.88,257.83,146.08Z"/><path class="cls-1" d="M284.91,144.31,274.24,126H287.6v16.67C287.6,144.88,285.87,146,284.91,144.31Z"/><path class="cls-1" d="M312,142.53,302.36,126h12.06V141C314.42,143.05,312.85,144,312,142.53Z"/><path class="cls-1" d="M339.07,140.76,330.47,126h10.77v13.44C341.24,141.22,339.84,142.08,339.07,140.76Z"/></g></g></svg>