<svg xmlns="http://www.w3.org/2000/svg" viewBox="0 0 247.27 325.77"><defs><style>.cls-1{fill:#fffceb;}.cls-2{fill:#b06d38;}.cls-3{fill:#6b3e1e;}.cls-4{fill:#809038;}.cls-5,.cls-6,.cls-8{fill:none;stroke-linecap:round;stroke-linejoin:round;}.cls-5{stroke:#6b3e1e;}.cls-5,.cls-6{stroke-width:1.51px;}.cls-6{stroke:#5b6628;}.cls-7{fill:#e3272f;}.cls-8{stroke:#991a20;stroke-width:0.72px;}</style></defs><g id="Layer_2" data-name="Layer 2"><g id="Layer_6" data-name="Layer 6"><path class="cls-1" d="M123.79,304.36a21.73,21.73,0,0,0-21.46-18.27H21.46A21.73,21.73,0,0,0,0,304.36Z"/><path class="cls-1" d="M96.19,325.77a10.87,10.87,0,0,0-10.73-9.13H45a10.87,10.87,0,0,0-10.73,9.13Z"/><path class="cls-1" d="M141.93,321.2a5.44,5.44,0,0,0-5.37-4.56H116.34A5.43,5.43,0,0,0,111,321.2Z"/><polygon class="cls-2" points="151.38 303.79 123.94 100.63 96.5 303.79 151.38 303.79"/><circle class="cls-3" cx="118.31" cy="121.03" r="10.78"/><circle class="cls-3" cx="135.51" cy="119.06" r="8"/><path class="cls-4" d="M122.8,111.25l-48,48S62.07,111.25,122.8,111.25Z"/><path class="cls-4" d="M122.8,111.25h67.85S165.75,154.19,122.8,111.25Z"/><path class="cls-4" d="M11.55,111.25s40.84-70.41,111.25,0H11.55"/><path class="cls-4" d="M44.14,32.58s78.66-20.91,78.66,78.67L44.14,32.58"/><path class="cls-4" d="M122.8,0s70.41,40.84,0,111.25V0"/><path class="cls-4" d="M201.47,32.58s20.91,78.67-78.67,78.67l78.67-78.67"/><line class="cls-5" x1="148.95" y1="285.79" x2="98.93" y2="285.79"/><line class="cls-5" x1="145.35" y1="259.11" x2="102.54" y2="259.11"/><line class="cls-5" x1="141.4" y1="229.87" x2="106.49" y2="229.87"/><line class="cls-5" x1="136.34" y1="192.45" x2="111.23" y2="192.45"/><line class="cls-5" x1="130.92" y1="152.3" x2="116.58" y2="152.3"/><path class="cls-6" d="M122.8,111.25s-7.89-48.31-49.09-70.38"/><polyline class="cls-6" points="101.24 49.51 101.24 64.2 79.28 64.2"/><polyline class="cls-6" points="105.5 58.43 105.5 69.97 93.72 69.97"/><polyline class="cls-6" points="116.58 79.95 116.58 90.81 107.53 90.81"/><path class="cls-6" d="M122.8,111.25s28.58-39.74,15-84.48"/><polyline class="cls-6" points="151.21 52.34 140.82 62.73 125.3 47.21"/><polyline class="cls-6" points="147.92 61.67 139.76 69.83 131.42 61.49"/><polyline class="cls-6" points="140.53 84.72 132.86 92.39 126.46 86"/><path class="cls-6" d="M122.8,111.25s48.31-7.89,70.38-49.09"/><polyline class="cls-6" points="184.54 89.69 169.85 89.69 169.85 67.73"/><polyline class="cls-6" points="175.62 93.95 164.08 93.95 164.08 82.16"/><polyline class="cls-6" points="154.1 105.02 143.25 105.02 143.25 95.98"/><path class="cls-6" d="M122.8,111.25S83.21,82.47,38.4,95.76"/><polyline class="cls-6" points="64.05 82.53 74.38 92.97 58.77 108.42"/><polyline class="cls-6" points="73.35 85.87 81.47 94.08 73.09 102.37"/><polyline class="cls-6" points="96.36 93.39 104 101.1 97.57 107.46"/><path class="cls-7" d="M101.22,303.79h73S135.48,269.53,101.22,303.79Z"/><path class="cls-7" d="M122.61,252.15c0,48.45,51.64,51.64,51.64,51.64S171.06,252.15,122.61,252.15Z"/><path class="cls-7" d="M174.25,230.77c-34.26,34.25,0,73,0,73S208.5,265,174.25,230.77Z"/><path class="cls-7" d="M225.88,252.15c-48.45,0-51.63,51.64-51.63,51.64S225.88,300.6,225.88,252.15Z"/><path class="cls-7" d="M122.61,252.15c0,48.45,51.64,51.64,51.64,51.64S171.06,252.15,122.61,252.15Z"/><path class="cls-7" d="M122.61,252.15c0,48.45,51.64,51.64,51.64,51.64S171.06,252.15,122.61,252.15Z"/><path class="cls-7" d="M174.25,230.77c-34.26,34.25,0,73,0,73S208.5,265,174.25,230.77Z"/><path class="cls-7" d="M225.88,252.15c-48.45,0-51.63,51.64-51.63,51.64S225.88,300.6,225.88,252.15Z"/><path class="cls-7" d="M247.27,303.79c-34.26-34.26-73,0-73,0Z"/><line class="cls-8" x1="173.85" y1="303.03" x2="173.85" y2="238.19"/><line class="cls-8" x1="129.96" y1="303.03" x2="122.15" y2="295.23"/><line class="cls-8" x1="139.02" y1="303.03" x2="131.22" y2="295.23"/><line class="cls-8" x1="148.08" y1="303.03" x2="140.28" y2="295.23"/><line class="cls-8" x1="218.53" y1="303.03" x2="226.34" y2="295.23"/><line class="cls-8" x1="209.47" y1="303.03" x2="217.27" y2="295.23"/><line class="cls-8" x1="200.41" y1="303.03" x2="208.21" y2="295.23"/><line class="cls-8" x1="166.48" y1="252.15" x2="174.25" y2="259.91"/><line class="cls-8" x1="174.25" y1="259.91" x2="182.05" y2="252.11"/><line class="cls-8" x1="166.48" y1="261.22" x2="174.25" y2="268.98"/><line class="cls-8" x1="174.25" y1="268.98" x2="182.05" y2="261.18"/><line class="cls-8" x1="166.48" y1="270.28" x2="174.25" y2="278.04"/><line class="cls-8" x1="174.25" y1="278.04" x2="182.05" y2="270.24"/><line class="cls-8" x1="174.25" y1="303.03" x2="174.25" y2="238.19"/><line class="cls-8" x1="132.78" y1="272.54" x2="143.76" y2="272.54"/><line class="cls-8" x1="143.76" y1="272.54" x2="143.76" y2="261.51"/><line class="cls-8" x1="139.19" y1="278.95" x2="150.17" y2="278.95"/><line class="cls-8" x1="150.17" y1="278.95" x2="150.17" y2="267.92"/><line class="cls-8" x1="145.6" y1="285.36" x2="156.58" y2="285.36"/><line class="cls-8" x1="156.58" y1="285.36" x2="156.58" y2="274.33"/><line class="cls-8" x1="174.25" y1="303.03" x2="128.4" y2="257.18"/><line class="cls-8" x1="204.73" y1="261.57" x2="204.73" y2="272.54"/><line class="cls-8" x1="204.73" y1="272.54" x2="215.77" y2="272.54"/><line class="cls-8" x1="198.32" y1="267.98" x2="198.32" y2="278.95"/><line class="cls-8" x1="198.32" y1="278.95" x2="209.36" y2="278.95"/><line class="cls-8" x1="191.91" y1="274.39" x2="191.91" y2="285.36"/><line class="cls-8" x1="191.91" y1="285.36" x2="202.95" y2="285.36"/><line class="cls-8" x1="174.25" y1="303.03" x2="220.09" y2="257.18"/></g></g></svg>