<svg xmlns="http://www.w3.org/2000/svg" viewBox="0 0 202.12 171.29"><defs><style>.cls-1{fill:#a97c50;}.cls-2{fill:#453321;}.cls-3{fill:#231f20;}.cls-4{fill:#006838;}.cls-5{fill:#755638;}.cls-10,.cls-6,.cls-7,.cls-8{fill:none;}.cls-6{stroke:#755638;stroke-linejoin:round;}.cls-6,.cls-7{stroke-linecap:round;}.cls-6,.cls-7,.cls-8{stroke-width:1.89px;}.cls-7,.cls-8{stroke:#453321;}.cls-7{stroke-linejoin:bevel;}.cls-10,.cls-8{stroke-miterlimit:10;}.cls-9{fill:#f15a29;}.cls-10{stroke:#a97c50;stroke-width:0.93px;}</style></defs><g id="Layer_2" data-name="Layer 2"><g id="Layer_12" data-name="Layer 12"><rect class="cls-1" x="32.2" y="45.08" width="62.96" height="43.6" rx="4.62"/><path class="cls-2" d="M66.35,0H85.12a35.44,35.44,0,0,1,35.44,35.44V45a0,0,0,0,1,0,0H30.91a0,0,0,0,1,0,0V35.44A35.44,35.44,0,0,1,66.35,0Z"/><path class="cls-1" d="M47.66,153.88l9.86-60.82H84.08l9.85,60.82h0l26.63,14.57h0v2.84H77.06V152h0V111.41c0-3.46-12.55-3.46-12.55,0V152h0v19.34H21v-2.84h0l26.63-14.57Z"/><path class="cls-1" d="M111.62,64.51a2.91,2.91,0,0,0-3.8-2.78V45.12c20.56,0,37.23,18.67,37.23,41.7,0,21.58-14.65,39.34-33.43,41.47Z"/><path class="cls-3" d="M33.51,77.11c7.37,0,13.35-6.72,13.35-15v-17h57.75v83.17l-11.87-9-11.86,9-11.86-9-11.87,9-11.86-9-11.86,9V77.11Z"/><path class="cls-4" d="M39.14,45.12h0Z"/><rect class="cls-1" x="79.43" y="26.5" width="17.97" height="32" rx="8.99" transform="translate(176.82 85.01) rotate(-180)"/><path class="cls-5" d="M107.94,45h0a4.37,4.37,0,0,1,4.37,4.37V78.82a4.37,4.37,0,0,1-4.37,4.37H79.11a4.37,4.37,0,0,1-4.37-4.37V49.4A4.37,4.37,0,0,1,79.11,45h28.83Z"/><line class="cls-6" x1="93.53" y1="40.47" x2="84.18" y2="40.47"/><line class="cls-7" x1="95.41" y1="36.4" x2="81.36" y2="36.4"/><line class="cls-8" x1="111.57" y1="51.74" x2="79.41" y2="51.74"/><path class="cls-9" d="M69.15,111.62h0c6.57,0,11.89,6.18,11.89,13.8v2.76l-.16.11-11.86-9-11.75,8.9v-2.79C57.27,117.8,62.59,111.62,69.15,111.62Z"/><path class="cls-9" d="M85.18,96.39h0c0-5.35,3.74-9.68,8.35-9.68h11.08v19.37H93.53C88.92,106.08,85.18,101.74,85.18,96.39Z"/><path class="cls-9" d="M60.27,65.83v17c0,8.59-6,15.55-13.41,15.55h0c-7.4,0-13.41-7-13.41-15.55V77.11h.06c7.37,0,13.35-6.72,13.35-15V50.27h0C54.27,50.27,60.27,57.24,60.27,65.83Z"/><polygon class="cls-3" points="111.57 111.88 111.57 120.97 202.04 147.93 202.04 98.99 111.57 111.88"/><polyline class="cls-10" points="202.04 135.32 174.15 130.4 174.15 125.3 111.61 118.82"/><polyline class="cls-10" points="202.04 108.98 183.02 110.36 183.02 112.68 111.57 115.76"/><polygon class="cls-3" points="182.24 103.58 182.24 98.03 172.83 100.19 172.83 104.53 182.24 103.58"/><path class="cls-1" d="M33.43,64.51a2.91,2.91,0,0,1,3.8-2.78V45.12C16.67,45.12,0,63.79,0,86.82c0,21.58,14.65,39.34,33.43,41.47Z"/></g></g></svg>