<svg xmlns="http://www.w3.org/2000/svg" viewBox="0 0 258.71 349.91"><defs><style>.cls-1{fill:#fffceb;}.cls-2{fill:#809038;}.cls-3{fill:#afc639;}.cls-4{fill:#b06d38;}.cls-5{fill:#6b3e1e;}.cls-6,.cls-7{fill:none;stroke-linecap:round;stroke-linejoin:round;stroke-width:1.66px;}.cls-6{stroke:#6b3e1e;}.cls-7{stroke:#5b6628;}</style></defs><g id="Layer_2" data-name="Layer 2"><g id="Layer_6" data-name="Layer 6"><path class="cls-1" d="M122.68,329.44a17.23,17.23,0,0,0-17-14.49H41.55a17.22,17.22,0,0,0-17,14.49Z"/><path class="cls-1" d="M49.07,344.65a8.62,8.62,0,0,0-8.5-7.25H8.51A8.62,8.62,0,0,0,0,344.65Z"/><path class="cls-1" d="M97.43,349.91c-.55-4.11-3.51-7.25-7.08-7.25H63.68c-3.57,0-6.53,3.14-7.08,7.25Z"/><path class="cls-2" d="M128.9,334.79H185S155.21,308.47,128.9,334.79Z"/><path class="cls-3" d="M145.33,295.12c0,37.22,39.67,39.67,39.67,39.67S182.55,295.12,145.33,295.12Z"/><path class="cls-3" d="M185,278.68c-26.32,26.32,0,56.11,0,56.11S211.32,305,185,278.68Z"/><path class="cls-3" d="M224.67,295.12c-37.22,0-39.67,39.67-39.67,39.67S224.67,332.34,224.67,295.12Z"/><path class="cls-3" d="M145.33,295.12c0,37.22,39.67,39.67,39.67,39.67S182.55,295.12,145.33,295.12Z"/><path class="cls-2" d="M145.33,295.12c0,37.22,39.67,39.67,39.67,39.67S182.55,295.12,145.33,295.12Z"/><path class="cls-2" d="M185,278.68c-26.32,26.32,0,56.11,0,56.11S211.32,305,185,278.68Z"/><path class="cls-2" d="M224.67,295.12c-37.22,0-39.67,39.67-39.67,39.67S224.67,332.34,224.67,295.12Z"/><path class="cls-2" d="M241.1,334.79c-26.32-26.32-56.1,0-56.1,0Z"/><polygon class="cls-4" points="104.62 334.79 134.86 110.9 165.1 334.79 104.62 334.79"/><circle class="cls-5" cx="141.07" cy="133.38" r="11.88"/><circle class="cls-5" cx="122.11" cy="131.21" r="8.81"/><path class="cls-2" d="M136.11,122.6,189,175.47S203,122.6,136.11,122.6Z"/><path class="cls-2" d="M136.11,122.6H61.34S88.79,169.93,136.11,122.6Z"/><path class="cls-2" d="M258.71,122.6s-45-77.59-122.6,0h122.6"/><path class="cls-2" d="M222.8,35.91s-86.69-23-86.69,86.69L222.8,35.91"/><path class="cls-2" d="M136.11,0s-77.59,45,0,122.6V0"/><path class="cls-2" d="M49.42,35.91s-23,86.69,86.69,86.69L49.42,35.91"/><line class="cls-6" x1="107.3" y1="314.95" x2="162.42" y2="314.95"/><line class="cls-6" x1="111.27" y1="277.65" x2="158.45" y2="277.65"/><line class="cls-6" x1="115.62" y1="246.21" x2="154.09" y2="246.21"/><line class="cls-6" x1="121.19" y1="212.09" x2="148.87" y2="212.09"/><line class="cls-6" x1="127.16" y1="167.84" x2="142.97" y2="167.84"/><path class="cls-7" d="M136.11,122.6s8.7-53.23,54.11-77.56"/><polyline class="cls-7" points="159.88 54.56 159.88 70.75 184.07 70.75"/><polyline class="cls-7" points="155.18 64.39 155.18 77.11 168.17 77.11"/><polyline class="cls-7" points="142.97 88.11 142.97 100.07 152.94 100.07"/><path class="cls-7" d="M136.11,122.6s-31.49-43.79-16.58-93.1"/><polyline class="cls-7" points="104.8 57.69 116.25 69.13 133.36 52.02"/><polyline class="cls-7" points="108.43 67.96 117.42 76.95 126.61 67.77"/><polyline class="cls-7" points="116.58 93.36 125.03 101.82 132.08 94.77"/><path class="cls-7" d="M136.11,122.6s-53.23-8.7-77.56-54.1"/><polyline class="cls-7" points="68.07 98.84 84.26 98.84 84.26 74.64"/><polyline class="cls-7" points="77.9 103.54 90.62 103.54 90.62 90.55"/><polyline class="cls-7" points="101.63 115.74 113.58 115.74 113.58 105.77"/><path class="cls-7" d="M136.11,122.6s43.63-31.72,93-17.07"/><polyline class="cls-7" points="200.86 90.95 189.47 102.46 206.67 119.48"/><polyline class="cls-7" points="190.61 94.64 181.66 103.67 190.9 112.81"/><polyline class="cls-7" points="165.25 102.91 156.84 111.41 163.92 118.42"/></g></g></svg>