<svg xmlns="http://www.w3.org/2000/svg" viewBox="0 0 777.87 41.63">
<defs>
<style>.cls-1{fill:none;stroke:#e3272f;stroke-miterlimit:10;stroke-width:3px;}.cls-2{fill:#e3272f;}</style>
</defs>
<g id="Layer_2" data-name="Layer 2">
<g id="Layer_8" data-name="Layer 8">
<line class="cls-1" x1="156.67" y1="23.86" y2="23.86"/>
<line class="cls-1" x1="777.87" y1="23.86" x2="621.19" y2="23.86"/>
<path class="cls-2" 
d="M187.53,41.57h-.28a1.53,1.53,0,0,1-1.53-1.41V2a1.57,1.57,0,0,1,1.67-1.4h9.13C210,.59,220.9,9.84,220.9,21.14S210,41.57,196.52,41.57Zm9-2.87c11.56,0,21-7.85,21-17.56s-9.41-17.63-21-17.69h-7.39V38.7Z"/>
<path class="cls-2" d="M239.78,2a1.58,1.58,0,0,1,1.68-1.4A1.6,1.6,0,0,1,243.2,2V40.16a1.61,1.61,0,0,1-1.74,1.41,1.59,1.59,0,0,1-1.68-1.41Z"/><path class="cls-2" 
d="M271.07,6.62V40.16a1.7,1.7,0,0,1-3.35,0V2.58A1.3,1.3,0,0,1,268.35,1a2,2,0,0,1,2.37.35l29.54,34.42V2.4A1.58,1.58,0,0,1,301.93,1a1.6,1.6,0,0,1,1.74,1.4V40.16a1.6,1.6,0,0,1-1.74,1.41,1.76,1.76,0,0,1-1.32-.53c-.07-.06-.21-.12-.28-.23Z"/>
<path class="cls-2" 
d="M346.11,0c13,0,23.27,9.31,23.34,20.78s-10.31,20.79-23.34,20.79-23.48-9.31-23.55-20.79S332.94,0,346.11,0Zm0,38.7c10.73,0,19.78-7.9,19.85-17.92S356.84,2.93,346.11,2.93C335,2.93,326,10.66,326,20.78S335,38.7,346.11,38.7Z"/>
<path class="cls-2" 
d="M409.12,41.57h-.28a1.54,1.54,0,0,1-1.54-1.41V2A1.58,1.58,0,0,1,409,.59h9.12c13.45,0,24.39,9.25,24.39,20.55S431.55,41.57,418.1,41.57Zm9-2.87c11.57,0,21-7.85,21-17.56s-9.4-17.63-21-17.69h-7.38V38.7Z"/>
<path class="cls-2" 
d="M486.52,31H464.3L460,40.63a1.74,1.74,0,0,1-1.6.94c-.14,0-.42-.06-.63-.06a1.42,1.42,0,0,1-1-1.87l16.93-38a1.92,1.92,0,0,1,1.67-.88,1.77,1.77,0,0,1,1.68.88l16.93,38a1.39,1.39,0,0,1-.91,1.87c-.28,0-.42.06-.62.06a1.82,1.82,0,0,1-1.61-.94Zm-21-2.87h19.72l-9.82-22Z"/>
<path class="cls-2" 
d="M520,21.9,503.59,3.1a1.36,1.36,0,0,1,.35-2,1.81,1.81,0,0,1,2.37.24L521.57,19,536.9,1.35a1.81,1.81,0,0,1,2.37-.24,1.27,1.27,0,0,1,.35,2L523.31,21.78V40.16a1.53,1.53,0,0,1-1.67,1.41A1.58,1.58,0,0,1,520,40.16Z"/>
<path class="cls-2" 
d="M551,33.9a1.67,1.67,0,0,1,2.16-.18c3.63,2.46,9.69,5.33,16,5.27a20.85,20.85,0,0,0,10.73-2.69c2.72-1.64,4.18-3.81,4.18-6.09s-1.33-4.1-4-5.62a36.31,36.31,0,0,0-11.29-3.34h-.14a34.46,34.46,0,0,1-11.5-3.45c-3-1.64-5-4.1-5-7.14s2-5.8,5.09-7.67A22.66,22.66,0,0,1,569,0c6.41,0,11.22,2.63,15.05,4.74a1.2,1.2,0,0,1,.42,1.82,1.66,1.66,0,0,1-2.09.35c-3.84-2.11-8-4.33-13.38-4.33a19.87,19.87,0,0,0-10,2.45c-2.44,1.53-3.84,3.52-3.84,5.63s1.19,3.57,3.63,5,6.06,2.4,10.45,3.11h.14c4.87.76,9.19,1.93,12.4,3.74s5.36,4.45,5.36,7.73-2.23,6.21-5.5,8.2a24.38,24.38,0,0,1-12.54,3.22c-7.46-.06-13.94-3.22-18-5.92A1.21,1.21,0,0,1,551,33.9Z"/>
</g>
</g>
</svg>