<svg xmlns="http://www.w3.org/2000/svg" viewBox="0 0 249.15 300.04"><defs><style>.cls-1{fill:#64702c;}.cls-2{fill:none;stroke:#3f461c;stroke-linecap:round;stroke-linejoin:round;stroke-width:2.36px;}</style></defs><g id="Layer_2" data-name="Layer 2"><g id="Layer_6" data-name="Layer 6"><path class="cls-1" d="M75.07,126,0,201S75.07,221,75.07,126Z"/><path class="cls-1" d="M75.07,126V19.78S7.88,58.76,75.07,126Z"/><path class="cls-1" d="M75.07,300s110.18-63.91,0-174.08V300"/><path class="cls-1" d="M198.17,249.05S230.89,126,75.07,126l123.1,123.09"/><path class="cls-1" d="M249.15,126s-63.9-110.18-174.08,0H249.15"/><path class="cls-1" d="M198.17,2.86S75.07-29.86,75.07,126L198.17,2.86"/><path class="cls-2" d="M75.07,126s75.59,12.35,110.13,76.82"/><polyline class="cls-2" points="171.69 159.7 148.7 159.7 148.7 194.05"/><polyline class="cls-2" points="157.73 153.02 139.67 153.02 139.67 171.47"/><polyline class="cls-2" points="124.04 135.7 107.06 135.7 107.06 149.85"/><path class="cls-2" d="M75.07,126s62.19-44.72,132.2-23.56"/><polyline class="cls-2" points="167.25 81.5 150.99 97.75 175.28 122.05"/><polyline class="cls-2" points="152.66 86.65 139.89 99.42 152.93 112.46"/><polyline class="cls-2" points="116.59 98.22 104.58 110.22 114.59 120.23"/><path class="cls-2" d="M75.07,126S87.43,50.37,151.89,15.83"/><polyline class="cls-2" points="108.81 29.34 108.81 52.33 143.17 52.33"/><polyline class="cls-2" points="102.14 43.3 102.14 61.36 120.59 61.36"/><polyline class="cls-2" points="84.81 76.99 84.81 93.97 98.97 93.97"/><path class="cls-2" d="M75.07,126s45,61.94,24.24,132.06"/><polyline class="cls-2" points="120.01 217.9 103.67 201.72 79.5 226.15"/><polyline class="cls-2" points="114.78 203.33 101.95 190.63 88.97 203.74"/><polyline class="cls-2" points="103.03 167.32 90.96 155.38 81 165.44"/></g></g></svg>