<svg xmlns="http://www.w3.org/2000/svg" xmlns:xlink="http://www.w3.org/1999/xlink" viewBox="0 0 489.26 238"><defs><style>.cls-1{fill:none;}.cls-2{clip-path:url(#clip-path);}.cls-3{fill:#809038;}.cls-4{fill:#fff;}.cls-5{fill:url(#linear-gradient);}.cls-6{fill:#283b2a;}</style><clipPath id="clip-path"><path class="cls-1" d="M236.46,61c23.61,1,79.54,16.61,64.29,37-3.72,5-10.21,9-17.9,11h-1.54C264.66,109,223,107.71,223,78.84,223,38.7,281.13,0,281.13,0H0S167.79,27.19,195.41,63.4c26.23,34.38-25.75,46.78-47.4,51.13l8.63,1.11,5.44,3.11-5.44,3.45L148,123.29c21.65,4.36,73.63,16.86,47.4,51.24C167.79,210.74,0,238,0,238H281.13S223,199.3,223,159.16c0-28.87,41.64-30.16,58.29-30.16H316s15.33-31.83,24.7-38.18C372.06,69.59,489.26,61,489.26,61Z"/></clipPath><linearGradient id="linear-gradient" x1="317.52" y1="-1732.06" x2="317.52" y2="-937.46" gradientUnits="userSpaceOnUse"><stop offset="0" stop-color="#54d6f4"/><stop offset="0.23" stop-color="#71def6"/><stop offset="0.48" stop-color="#8ce5f8"/><stop offset="0.61" stop-color="#86e3f8"/><stop offset="0.78" stop-color="#74dff6"/><stop offset="0.98" stop-color="#58d7f4"/><stop offset="1" stop-color="#54d6f4"/></linearGradient></defs><g id="Layer_2" data-name="Layer 2"><g id="Layer_8" data-name="Layer 8"><g class="cls-2"><path class="cls-3" d="M236.46,61c23.61,1,79.54,16.61,64.29,37-3.72,5-10.21,9-17.9,11h-1.54C264.66,109,223,107.71,223,78.84,223,38.7,281.13,0,281.13,0H0S167.79,27.19,195.41,63.4c26.23,34.38-25.75,46.78-47.4,51.13l8.63,1.11,5.44,3.11-5.44,3.45L148,123.29c21.65,4.36,73.63,16.86,47.4,51.24C167.79,210.74,0,238,0,238H281.13S223,199.3,223,159.16c0-28.87,41.64-30.16,58.29-30.16H316s15.33-31.83,24.7-38.18C372.06,69.59,489.26,61,489.26,61Z"/><circle class="cls-4" cx="317.52" cy="72.6" r="6.98"/><path class="cls-5" d="M317.52,77.49a4.89,4.89,0,1,1,4.88-4.89A4.9,4.9,0,0,1,317.52,77.49Zm0-6.28a1.4,1.4,0,1,0,1.39,1.39A1.4,1.4,0,0,0,317.52,71.21Z"/><path class="cls-6" d="M451.48,68.21H330.6a1.74,1.74,0,0,1,0-3.48H451.48a1.74,1.74,0,1,1,0,3.48Z"/><rect class="cls-6" x="248.73" y="95.52" width="7.91" height="27.91" rx="3.95"/><rect class="cls-6" x="262.34" y="94.48" width="7.91" height="27.91" rx="3.95"/><rect class="cls-6" x="279.9" y="47.13" width="5.63" height="19.89" rx="2.82"/><rect class="cls-6" x="288.5" y="47.13" width="5.63" height="19.89" rx="2.82"/><rect class="cls-6" x="297.11" y="47.13" width="5.63" height="19.89" rx="2.82"/><rect class="cls-6" x="275.95" y="92.4" width="7.91" height="27.91" rx="3.95"/><circle class="cls-6" cx="317.52" cy="72.6" r="3.14"/></g></g></g></svg>