<svg xmlns="http://www.w3.org/2000/svg" viewBox="0 0 172.95 178.15"><defs><style>.cls-1{fill:#a97c50;}.cls-2{fill:#231f20;}.cls-3{fill:#f15a29;}.cls-4{fill:#006838;}.cls-5{fill:#755638;}.cls-6,.cls-7,.cls-8,.cls-9{fill:none;}.cls-6{stroke:#755638;stroke-linejoin:round;}.cls-6,.cls-7{stroke-linecap:round;}.cls-6,.cls-7,.cls-8{stroke-width:1.89px;}.cls-7,.cls-8{stroke:#453321;}.cls-7{stroke-linejoin:bevel;}.cls-8,.cls-9{stroke-miterlimit:10;}.cls-9{stroke:#a97c50;stroke-width:0.93px;}</style></defs><g id="Layer_2" data-name="Layer 2"><g id="Layer_12" data-name="Layer 12"><path class="cls-1" d="M75.56,160.74l9.85-60.82H112l9.86,60.82h0l26.63,14.57h0v2.84H105V158.81h0V118.28c0-3.47-12.55-3.47-12.55,0v40.53h0v19.34H48.93v-2.84h0l26.63-14.57Z"/><path class="cls-2" d="M81.58,52c.36-19.13,17.09-34.54,37.7-34.54S156.63,32.82,157,52Z"/><path class="cls-1" d="M139.52,71.37a2.92,2.92,0,0,0-3.8-2.78V52C156.28,52,173,70.65,173,93.68c0,21.59-14.65,39.35-33.43,41.48Z"/><path class="cls-1" d="M62.62,53.4A193.73,193.73,0,0,1,86.28,52h.17V84H6.51C6.51,70.53,28.8,57.61,62.62,53.4Z"/><path class="cls-3" d="M71,84a15.25,15.25,0,0,0,15.5-15V52H132.5v83.17l-13.76-9-13.77,9-13.77-9-13.76,9-13.77-9-13.77,9V84Z"/><path class="cls-4" d="M85.1,52h0Z"/><rect class="cls-1" x="119.18" y="33.37" width="17.97" height="32" rx="8.99" transform="translate(256.33 98.74) rotate(180)"/><path class="cls-5" d="M140.35,51.89h0a4.37,4.37,0,0,1,4.37,4.37V85.69a4.37,4.37,0,0,1-4.37,4.37H111.52a4.37,4.37,0,0,1-4.37-4.37V56.26a4.37,4.37,0,0,1,4.37-4.37h28.83Z"/><line class="cls-6" x1="133.72" y1="47.34" x2="124.38" y2="47.34"/><line class="cls-7" x1="135.6" y1="43.27" x2="121.56" y2="43.27"/><line class="cls-8" x1="144.72" y1="58.61" x2="112.56" y2="58.61"/><path class="cls-2" d="M91.36,118.49h0a13.78,13.78,0,0,1,13.79,13.79V135l-.18.12-13.77-9-13.63,8.9v-2.79A13.78,13.78,0,0,1,91.36,118.49Z"/><path class="cls-2" d="M63.69,102.41v5.75A13.79,13.79,0,0,1,49.9,122V88.62A13.78,13.78,0,0,1,63.69,102.41Z"/><path class="cls-2" d="M110,103.26h0a9.69,9.69,0,0,1,9.68-9.69H132.5v19.37H119.64A9.69,9.69,0,0,1,110,103.26Z"/><path class="cls-2" d="M131.07,124.53h1.43v10.63l-8-5.21A6.67,6.67,0,0,1,131.07,124.53Z"/><path class="cls-2" d="M102,72.7v17a15.56,15.56,0,0,1-15.56,15.56h0A15.56,15.56,0,0,1,70.89,89.73V84H71a15.25,15.25,0,0,0,15.5-15V57.14h0A15.56,15.56,0,0,1,102,72.7Z"/><polygon class="cls-2" points="13.85 90.55 22.95 90.55 49.9 0.08 0.96 0.08 13.85 90.55"/><path class="cls-1" d="M20.74,80.11c.16-5.19,7.51-9.38,16.56-9.38s16.39,4.19,16.55,9.38Z"/><polyline class="cls-9" points="37.3 0.08 32.38 27.97 27.27 27.97 20.8 90.52"/><polyline class="cls-9" points="10.95 0.08 12.34 19.11 14.65 19.11 17.73 90.55"/><polygon class="cls-2" points="5.55 19.89 0 19.89 2.16 29.29 6.51 29.29 5.55 19.89"/></g></g></svg>