<svg xmlns="http://www.w3.org/2000/svg" viewBox="0 0 403.65 192.57"><defs><style>.cls-1{fill:#3b382d;}.cls-2{fill:#d6d3c9;}.cls-3{fill:#a29b83;}</style></defs><g id="Layer_2" data-name="Layer 2"><g id="Layer_4" data-name="Layer 4"><polygon class="cls-1" points="132.04 0 137.22 14.7 255.89 7.37 257.68 0 132.04 0"/><path class="cls-2" d="M242.36,0c-1.4,139.88,74.12,153.38,74.12,153.38h87.17C364.08,108.68,314.41,29.87,295.85,0Z"/><path class="cls-3" d="M216.9,0c-2.59,27.17.44,81.51,45.59,153.38h54S274.45,79.45,248.84,0Z"/><path class="cls-3" d="M97.52,0C78.94,32,47.34,82.37,0,145.69H66.75S128.23,71.7,133.81,0Z"/><path class="cls-2" d="M123.15,0C110.07,27.23,81.09,83.2,18,192.57H150V0Z"/><path class="cls-2" d="M181.49,0V192.57h123S263.72,127.64,227,0Z"/></g></g></svg>